<svg id="e82c897f-43fe-4287-8ae1-200fadcfb6cc" xmlns="http://www.w3.org/2000/svg" xmlns:xlink="http://www.w3.org/1999/xlink" viewBox="0 0 818.94 747"><defs><style>.cls-1{fill:none;}.cls-2{fill:#ccc;}.cls-3{opacity:0.5;}.cls-4{clip-path:url(#clip-path);}.cls-5{fill:gray;}.cls-6{fill:#f5f5f5;}.cls-7{fill:#333;}.cls-8{fill:#6c63ff;}.cls-9{opacity:0.1;isolation:isolate;}.cls-10{fill:#fda57d;}.cls-11{clip-path:url(#clip-path-2);}.cls-12{fill:#72351c;}.cls-13{clip-path:url(#clip-path-3);}.cls-14{fill:#be7c5e;}.cls-15{clip-path:url(#clip-path-4);}.cls-16{fill:#e6e6e6;}.cls-17{clip-path:url(#clip-path-5);}.cls-18{fill:#535461;}.cls-19{fill:#edeef9;}.cls-20{fill:#4d8af0;}</style><clipPath id="clip-path" transform="translate(0 0)"><circle class="cls-1" cx="391.06" cy="106.19" r="75.53"/></clipPath><clipPath id="clip-path-2" transform="translate(0 0)"><circle class="cls-1" cx="710.91" cy="111.58" r="75.53"/></clipPath><clipPath id="clip-path-3" transform="translate(0 0)"><circle class="cls-1" cx="551" cy="235.49" r="75.53"/></clipPath><clipPath id="clip-path-4" transform="translate(0 0)"><circle class="cls-1" cx="66.72" cy="372.35" r="66.72"/></clipPath><clipPath id="clip-path-5" transform="translate(0 0)"><circle class="cls-1" cx="77.31" cy="366" r="66.72"/></clipPath></defs><title>connecting_teams</title><ellipse class="cls-2" cx="403" cy="712" rx="402" ry="35"/><g class="cls-3"><g class="cls-4"><path class="cls-5" d="M315.53,181.72h0Z" transform="translate(0 0)"/><rect class="cls-5" x="315.53" y="100.15" width="151.06" height="81.57"/><rect class="cls-5" x="315.53" y="30.66" width="151.06" height="69.49"/><path class="cls-5" d="M466.59,30.66h0Z" transform="translate(0 0)"/></g></g><circle class="cls-6" cx="391.21" cy="105.71" r="73.93"/><path class="cls-7" d="M431.88,113c0,24.59-17.67,36.7-40.61,36.7S348.8,137.6,348.8,113s18.6-44.53,41.54-44.53S431.88,88.4,431.88,113Z" transform="translate(0 0)"/><path class="cls-8" d="M391.27,179.93a73.59,73.59,0,0,0,40.64-12.16C429.18,152.88,418.82,152,418.82,152H361.65s-9.78.8-12.84,14.5A73.59,73.59,0,0,0,391.27,179.93Z" transform="translate(0 0)"/><g class="cls-9"><path d="M379,133.87h22.87V152.8a10.8,10.8,0,0,1-10.8,10.8h-1.35A10.8,10.8,0,0,1,379,152.8V133.87Z" transform="translate(0 0)"/></g><path class="cls-10" d="M381,133h18.75a2.06,2.06,0,0,1,2.06,2.06V152A10.8,10.8,0,0,1,391,162.8h-1.28A10.8,10.8,0,0,1,379,152V135.09A2.06,2.06,0,0,1,381,133Z" transform="translate(0 0)"/><g class="cls-9"><path d="M379,142.51a32.91,32.91,0,0,0,22.87.06v-2.81H379Z" transform="translate(0 0)"/></g><circle class="cls-10" cx="390.49" cy="111.26" r="32.77"/><g class="cls-9"><path d="M352.72,113.41s20.41-2.47,35.87-22.27c0,0,20.41,22.47,34.63,20,0,0,8.25-8.66,0-17.32s-14.64-19.58-25.56-18.14-24.33,2.06-30.1,7.22S352.72,113.41,352.72,113.41Z" transform="translate(0 0)"/></g><path class="cls-7" d="M352.72,113s20.41-2.47,35.87-22.27c0,0,20.41,22.47,34.63,20,0,0,8.25-8.66,0-17.32s-14.64-19.58-25.56-18.14-24.33,2.06-30.1,7.22S352.72,113,352.72,113Z" transform="translate(0 0)"/><ellipse class="cls-10" cx="357.7" cy="111.23" rx="3.05" ry="5.72"/><ellipse class="cls-10" cx="423.26" cy="111.23" rx="3.05" ry="5.72"/><g class="cls-3"><g class="cls-11"><rect class="cls-5" x="635.38" y="105.54" width="151.06" height="81.57"/><rect class="cls-5" x="635.38" y="36.05" width="151.06" height="69.49"/><path class="cls-5" d="M786.44,36.05h0Z" transform="translate(0 0)"/></g></g><circle class="cls-6" cx="711.06" cy="111.1" r="73.93"/><path class="cls-8" d="M711.12,185.32a73.59,73.59,0,0,0,40.64-12.16c-2.72-14.89-13.09-15.74-13.09-15.74h-57.2s-9.78.8-12.84,14.5A73.59,73.59,0,0,0,711.12,185.32Z" transform="translate(0 0)"/><circle class="cls-12" cx="710.34" cy="109.54" r="35.69"/><g class="cls-9"><path d="M698.83,139.26H721.7v18.93A10.8,10.8,0,0,1,710.91,169h-1.29a10.8,10.8,0,0,1-10.8-10.8V139.26Z" transform="translate(0 0)"/></g><path class="cls-10" d="M700.89,138.41h18.75a2.06,2.06,0,0,1,2.06,2.06v16.87a10.8,10.8,0,0,1-10.8,10.8h-1.28a10.8,10.8,0,0,1-10.8-10.8V140.47a2.06,2.06,0,0,1,2.06-2.06Z" transform="translate(0 0)"/><g class="cls-9"><path d="M698.87,147.9a32.91,32.91,0,0,0,22.87.06v-2.81H698.87Z" transform="translate(0 0)"/></g><circle class="cls-10" cx="710.34" cy="116.65" r="32.77"/><g class="cls-9"><path d="M687,86.84s13.81,28,52.78,11.75l-9.07-14.22L714.63,78.6Z" transform="translate(0 0)"/></g><path class="cls-12" d="M687,86.43s13.81,28,52.78,11.75L730.71,84l-16.08-5.77Z" transform="translate(0 0)"/><path class="cls-12" d="M686.88,84.53a18.93,18.93,0,0,1,4.69-7.63c6.45-6.37,17-7.72,22.44-15a4.24,4.24,0,0,1-1.54,5.8l-.4.2c5.19,0,11.21-.49,14.15-4.76a9.71,9.71,0,0,1-1.64,10.26c4.6.21,9.52,3.33,9.81,7.93.2,3.06-1.72,6-4.24,7.72a23.57,23.57,0,0,1-8.56,3.22C712.83,94.2,681.17,102.29,686.88,84.53Z" transform="translate(0 0)"/><path class="cls-12" d="M743.12,116.94h-.87l-16.9,15c-16.29-7.63-28.24,0-28.24,0l-17.74-14.38-1.79.22a32.77,32.77,0,0,0,65.53-.84ZM710.3,137.76c-6.38,0-11.54-1.29-11.54-2.89S703.93,132,710.3,132s11.54,1.29,11.54,2.89-5.17,2.89-11.54,2.89Z" transform="translate(0 0)"/><ellipse class="cls-10" cx="677.56" cy="116.62" rx="3.05" ry="5.72"/><ellipse class="cls-10" cx="743.11" cy="116.62" rx="3.05" ry="5.72"/><g class="cls-3"><g class="cls-13"><rect class="cls-5" x="475.47" y="229.45" width="151.06" height="81.57"/><rect class="cls-5" x="475.47" y="159.96" width="151.06" height="69.49"/><path class="cls-5" d="M626.53,160h0Z" transform="translate(0 0)"/></g></g><circle class="cls-6" cx="551" cy="235.08" r="73.93"/><path class="cls-7" d="M522.14,235.73s-8.38,41.3-13,39c0,0,44.12,38.11,83.08,0,0,0-6.86-29.1-16.77-39Z" transform="translate(0 0)"/><path class="cls-8" d="M551.2,309.23a73.59,73.59,0,0,0,40.64-12.16c-2.72-14.89-13.09-15.74-13.09-15.74H521.59s-9.78.8-12.84,14.5A73.59,73.59,0,0,0,551.2,309.23Z" transform="translate(0 0)"/><circle class="cls-7" cx="550.43" cy="233.45" r="32.77"/><g class="cls-9"><path d="M538.91,263.17h22.87V282.1A10.8,10.8,0,0,1,551,292.9h-1.3a10.8,10.8,0,0,1-10.8-10.8V263.17Z" transform="translate(0 0)"/></g><path class="cls-14" d="M541,262.32h18.75a2.06,2.06,0,0,1,2.06,2.06v16.87A10.8,10.8,0,0,1,551,292h-1.3a10.8,10.8,0,0,1-10.8-10.8V264.38a2.06,2.06,0,0,1,2.06-2.06Z" transform="translate(0 0)"/><g class="cls-9"><path d="M538.95,271.8a32.91,32.91,0,0,0,22.87.06V269H538.95Z" transform="translate(0 0)"/></g><circle class="cls-14" cx="550.43" cy="240.56" r="32.77"/><path class="cls-7" d="M519.09,228.11h62.5s-5.34-25.24-29-23.63S519.09,228.11,519.09,228.11Z" transform="translate(0 0)"/><ellipse class="cls-14" cx="518.33" cy="239.16" rx="3.05" ry="5.72"/><ellipse class="cls-14" cx="582.35" cy="239.16" rx="3.05" ry="5.72"/><g class="cls-9"><path d="M519.09,229h62.5s-5.34-25.24-29-23.63S519.09,229,519.09,229Z" transform="translate(0 0)"/></g><path class="cls-2" d="M551,166.65a68.84,68.84,0,1,1-68.84,68.84h0A68.84,68.84,0,0,1,551,166.65m0-17a85.84,85.84,0,1,0,85.84,85.84h0A85.94,85.94,0,0,0,551,149.65Z" transform="translate(0 0)"/><rect class="cls-2" x="538.29" y="129.58" width="20.12" height="21.18"/><rect class="cls-2" x="586.87" y="142.37" width="21.18" height="20.12" transform="translate(159.09 586.05) rotate(-59)"/><rect class="cls-2" x="622.18" y="176.72" width="21.18" height="20.12" transform="translate(-11.22 330.19) rotate(-29)"/><rect class="cls-2" x="623.18" y="272.81" width="20.12" height="21.18" transform="translate(57.34 670.24) rotate(-58)"/><rect class="cls-2" x="459.16" y="176.2" width="20.12" height="21.18" transform="translate(78.37 506.62) rotate(-61)"/><rect class="cls-2" x="458.17" y="273.34" width="21.18" height="20.12" transform="translate(-78.95 291.47) rotate(-32)"/><rect class="cls-2" x="494.46" y="141.83" width="20.12" height="21.18" transform="translate(-6.44 281.62) rotate(-31)"/><rect class="cls-2" x="538.29" y="320.21" width="20.12" height="21.18"/><rect class="cls-2" x="587.4" y="307.96" width="20.12" height="21.18" transform="translate(-78.73 353.21) rotate(-31)"/><rect class="cls-2" x="498.45" y="308.42" width="21.29" height="20.22" transform="translate(-26.9 589.36) rotate(-58.84)"/><rect class="cls-2" x="442.97" y="227.02" width="24.36" height="18"/><rect class="cls-2" x="634.66" y="227.01" width="24.36" height="18"/><path class="cls-2" d="M710.91,42.74a68.84,68.84,0,1,1-68.84,68.84,68.84,68.84,0,0,1,68.84-68.84m0-17a85.84,85.84,0,1,0,85.84,85.84h0A85.94,85.94,0,0,0,710.91,25.74Z" transform="translate(0 0)"/><rect class="cls-2" x="698.2" y="5.67" width="20.12" height="21.18"/><rect class="cls-2" x="746.79" y="18.45" width="21.18" height="20.12" transform="translate(342.86 663.02) rotate(-59)"/><rect class="cls-2" x="782.1" y="52.82" width="21.18" height="20.12" transform="translate(68.9 392.18) rotate(-29)"/><rect class="cls-2" x="783.09" y="148.9" width="20.12" height="21.18" transform="translate(237.59 747.6) rotate(-58)"/><rect class="cls-2" x="619.09" y="52.29" width="20.12" height="21.18" transform="translate(269.14 582.65) rotate(-61)"/><rect class="cls-2" x="618.08" y="149.43" width="21.18" height="20.12" transform="translate(11.01 357.38) rotate(-32)"/><rect class="cls-2" x="654.38" y="17.92" width="20.12" height="21.18" transform="translate(80.22 346.28) rotate(-31)"/><rect class="cls-2" x="698.2" y="196.3" width="20.12" height="21.18"/><rect class="cls-2" x="747.32" y="184.06" width="20.12" height="21.18" transform="translate(7.93 417.88) rotate(-31)"/><rect class="cls-2" x="658.81" y="183.44" width="21.29" height="20.22" transform="translate(157.44 666.27) rotate(-58.84)"/><rect class="cls-2" x="602.89" y="103.11" width="24.36" height="18"/><rect class="cls-2" x="794.58" y="103.11" width="24.36" height="18"/><path class="cls-2" d="M391,37.44h2.43a68.84,68.84,0,0,1-2.35,137.64h-2.43A68.84,68.84,0,0,1,391,37.44m0-17h0a85.84,85.84,0,0,0-2.93,171.63c1,0,2,0,3,0a85.84,85.84,0,0,0,3-171.62c-1,0-2-.05-3-.05Z" transform="translate(0 0)"/><rect class="cls-2" x="381.17" y="0.88" width="21.18" height="20.12" transform="matrix(0.03, -1, 1, 0.03, 367.23, 402.07)"/><rect class="cls-2" x="429.82" y="14.83" width="21.18" height="20.12" transform="translate(179.73 380.74) rotate(-57.01)"/><rect class="cls-2" x="463.91" y="50.41" width="21.18" height="20.12" transform="translate(24.29 222.09) rotate(-27.01)"/><rect class="cls-2" x="461.56" y="146.45" width="20.12" height="21.18" transform="translate(77.76 460.28) rotate(-56.01)"/><rect class="cls-2" x="300.99" y="44.19" width="20.12" height="21.18" transform="translate(103.93 293.22) rotate(-59.01)"/><rect class="cls-2" x="298.58" y="142.23" width="21.25" height="20.19" transform="translate(-34.78 174.33) rotate(-29.89)"/><rect class="cls-2" x="337.47" y="11.09" width="20.12" height="21.18" transform="translate(33.09 171.26) rotate(-29.01)"/><rect class="cls-2" x="374.55" y="191.4" width="21.18" height="20.12" transform="matrix(0.03, -1, 1, 0.03, 170.43, 579.37)"/><rect class="cls-2" x="424.58" y="180.34" width="20.12" height="21.18" transform="translate(-38.06 234.74) rotate(-29.01)"/><rect class="cls-2" x="331.17" y="177.63" width="21.18" height="20.12" transform="translate(-1.75 372.15) rotate(-57.01)"/><rect class="cls-2" x="286.26" y="91.31" width="18" height="24.36" transform="translate(181.58 394.98) rotate(-88.01)"/><rect class="cls-2" x="477.85" y="97.93" width="18" height="24.36" transform="translate(359.9 592.84) rotate(-88.01)"/><g class="cls-3"><g class="cls-15"><path class="cls-5" d="M0,439.07H0Z" transform="translate(0 0)"/><rect class="cls-5" y="367.01" width="133.44" height="72.06"/><rect class="cls-5" y="305.63" width="133.44" height="61.38"/><path class="cls-5" d="M133.44,305.63h0Z" transform="translate(0 0)"/></g></g><circle class="cls-16" cx="66.85" cy="371.93" r="65.31"/><path class="cls-2" d="M66.9,437.5a65,65,0,0,0,35.9-10.74c-2.41-13.15-11.57-13.9-11.57-13.9H40.73s-8.64.71-11.34,12.81A65,65,0,0,0,66.9,437.5Z" transform="translate(0 0)"/><circle class="cls-2" cx="66.22" cy="370.55" r="31.53"/><g class="cls-9"><path d="M56,396.81H76.2v16.72a9.54,9.54,0,0,1-9.54,9.54H65.58a9.54,9.54,0,0,1-9.58-9.5V396.81Z" transform="translate(0 0)"/></g><path class="cls-2" d="M56.65,396.06h19a.6.6,0,0,1,.6.6h0v16.12a9.54,9.54,0,0,1-9.54,9.54H65.58a9.54,9.54,0,0,1-9.58-9.5V396.66a.6.6,0,0,1,.6-.6h.05Z" transform="translate(0 0)"/><g class="cls-9"><path d="M56.08,404.43a29.07,29.07,0,0,0,20.2.06V402H56.08Z" transform="translate(0 0)"/></g><circle class="cls-2" cx="66.22" cy="376.83" r="28.95"/><g class="cls-9"><path d="M45.6,350.5s12.2,24.77,46.62,10.38l-8-12.57L70,343.21Z" transform="translate(0 0)"/></g><path class="cls-2" d="M45.6,350.13s12.2,24.77,46.62,10.38l-8-12.57L70,342.84Z" transform="translate(0 0)"/><path class="cls-2" d="M45.47,348.46a16.73,16.73,0,0,1,4.15-6.74c5.7-5.63,15-6.82,19.82-13.24a3.75,3.75,0,0,1-1.38,5.12l-.34.17c4.58,0,9.91-.43,12.5-4.21a8.58,8.58,0,0,1-1.45,9.06c4.07.18,8.41,2.94,8.67,7,.18,2.71-1.52,5.27-3.75,6.82a20.82,20.82,0,0,1-7.56,2.85C68.42,357,40.47,364.14,45.47,348.46Z" transform="translate(0 0)"/><ellipse class="cls-2" cx="37.25" cy="376.81" rx="2.69" ry="5.05"/><ellipse class="cls-2" cx="95.17" cy="376.81" rx="2.69" ry="5.05"/><g class="cls-3"><g class="cls-17"><path class="cls-5" d="M10.59,432.72h0Z" transform="translate(0 0)"/><rect class="cls-5" x="10.59" y="360.66" width="133.44" height="72.06"/><rect class="cls-5" x="10.59" y="299.28" width="133.44" height="61.38"/><path class="cls-5" d="M144,299.28h0Z" transform="translate(0 0)"/></g></g><circle class="cls-6" cx="77.44" cy="365.57" r="65.31"/><path class="cls-2" d="M77.47,431.14a65,65,0,0,0,35.9-10.74c-2.41-13.15-11.57-13.9-11.57-13.9H51.3s-8.64.71-11.34,12.81A65,65,0,0,0,77.47,431.14Z" transform="translate(0 0)"/><circle class="cls-2" cx="76.81" cy="364.19" r="31.53"/><g class="cls-9"><path d="M66.63,390.45h20.2v16.72a9.54,9.54,0,0,1-9.54,9.54H76.17a9.54,9.54,0,0,1-9.54-9.54h0V390.45Z" transform="translate(0 0)"/></g><path class="cls-2" d="M67.24,389.7h19a.6.6,0,0,1,.6.6h0v16.12a9.54,9.54,0,0,1-9.5,9.58H76.17a9.54,9.54,0,0,1-9.54-9.54h0V390.31a.6.6,0,0,1,.59-.61Z" transform="translate(0 0)"/><g class="cls-9"><path d="M66.67,398.08a29.07,29.07,0,0,0,20.2.06v-2.48H66.67Z" transform="translate(0 0)"/></g><circle class="cls-2" cx="76.81" cy="370.48" r="28.95"/><g class="cls-9"><path d="M56.19,344.14s12.2,24.77,46.62,10.38l-8-12.57-14.21-5.1Z" transform="translate(0 0)"/></g><path class="cls-2" d="M56.19,343.78s12.2,24.77,46.62,10.38l-8-12.57-14.21-5.1Z" transform="translate(0 0)"/><path class="cls-2" d="M56.08,342.11a16.73,16.73,0,0,1,4.15-6.74c5.7-5.63,15-6.82,19.82-13.24a3.75,3.75,0,0,1-1.38,5.12l-.34.17c4.58,0,9.91-.43,12.5-4.21a8.58,8.58,0,0,1-1.45,9.06c4.07.18,8.41,2.94,8.67,7,.18,2.71-1.52,5.27-3.75,6.82a20.82,20.82,0,0,1-7.56,2.85C79,350.65,51,357.79,56.08,342.11Z" transform="translate(0 0)"/><ellipse class="cls-2" cx="47.84" cy="370.45" rx="2.69" ry="5.05"/><ellipse class="cls-2" cx="105.76" cy="370.45" rx="2.69" ry="5.05"/><path class="cls-18" d="M85,231s-45.19,10.63-37.21,75.75c0,0,16.35-5.78,22.06-6.44,5.42-.63,21.8,1.13,21.8,1.13L99.47,272Z" transform="translate(0 0)"/><path class="cls-10" d="M311.47,152.78V171.9L288.7,205.26l22.77,14.81s10.12-39,15.57-43.59c0,0,8.57-6.12,13.24-14.53s2.34-37.47-20.25-11.47v3.06Z" transform="translate(0 0)"/><path class="cls-10" d="M130.2,198.37l9-18a3.34,3.34,0,0,1,2.82-1.84l34.24-1.75a3.34,3.34,0,0,1,3.29,4.54l-8.83,22.83a3.34,3.34,0,0,1-3.41,2.12l-34.42-3.06a3.34,3.34,0,0,1-2.69-4.84Z" transform="translate(0 0)"/><polygon class="cls-19" points="132.74 190.63 126.93 207.69 186.65 205.55 163.71 191.78 132.74 190.63"/><polygon class="cls-19" points="284.53 207.84 287.59 204.02 313.58 219.31 313.58 226.19 284.53 207.84"/><path class="cls-20" d="M108.86,377s4.37,17.41-4,35-8.41,35.94,2.29,57.35l3.06,110.88s3.82,52,0,62.7,1.53,61.94,1.53,61.94h42.82v-34.4l14.53-101.7v-52l26,54.29L165.24,696.47l39,16.06,48.94-140.7s-8.41-110.88-39-149.11L208.47,381Z" transform="translate(0 0)"/><path class="cls-7" d="M111,733.18v-28.3h43.59s3.06,11.47,22.94,13.76-9.18,16.06-9.18,16.06Z" transform="translate(0 0)"/><path class="cls-7" d="M158,715.56l7.59-27.26,42,11.69s-.13,11.87,18.41,19.41-13.15,13-13.15,13Z" transform="translate(0 0)"/><g class="cls-9"><path d="M208.47,383.33l-99.58-4a55.71,55.71,0,0,1,.75,18c4.56,10.72,14.33,7.78,14.33,7.78l87.13-2.68Z" transform="translate(0 0)"/></g><path class="cls-18" d="M128.92,201.34l-44.35,30,8.79,48s22.18,43.39,15.29,86.78,15.29,36.71,15.29,36.71l87.53-2.67L218,268.51s52.79,7.49,76.5-10.85l19.12-29.2-29.06-20-9.94,14.18S243.47,216,226.35,209.1a73.07,73.07,0,0,0-25.07-5.37Z" transform="translate(0 0)"/><g class="cls-9"><path d="M129.68,413.16s-5.35,26.76,25.23,71.12" transform="translate(0 0)"/></g><g class="cls-9"><path d="M218.38,268.63s36.7-12.23,52.76-12.23,13.38,6.94,13.38,6.94S258.91,274.75,218.38,268.63Z" transform="translate(0 0)"/></g><g class="cls-9"><path d="M176.76,178.29,162.16,180c-.46.06-.88.64-1.13,1.54,3.21,5.79,7.23,9.25,11.59,9.25a9,9,0,0,0,4.43-1.23l1.12-6.76C178.54,180.57,177.8,178.16,176.76,178.29Z" transform="translate(0 0)"/></g><circle class="cls-10" cx="166.57" cy="144.69" r="44.6"/><g class="cls-9"><path d="M204.47,100.85v18.58l-2.25,2.06a7.71,7.71,0,0,0,2.25,12.81h0s-3.72,29.73-8.36,40.88L204,171l1.34,16.86a11.5,11.5,0,0,1-10.55,12.37q-.45,0-.91,0h0a11.5,11.5,0,0,1-10.23-16.75c1.89-3.68,5.24-7.55,6.88-13,6-20-6-16.26-8.83-12.54s.46,13.47.46,13.47S191,187.71,144.54,184c0,0-30.66-6.5-27.41-47.85.33-4.14-6.5-14.87,13.94-20.44h0a28.13,28.13,0,0,1,21.5-24.45C167.91,87.66,189.09,86.51,204.47,100.85Z" transform="translate(0 0)"/></g><path class="cls-12" d="M203.74,100.09v18.58l-2.27,2.06a7.71,7.71,0,0,0,2.25,12.81h0s-3.72,29.73-8.36,40.88l7.9-4.18,1.34,16.86A11.5,11.5,0,0,1,194,199.47q-.45,0-.91,0h0a11.5,11.5,0,0,1-10.23-16.75c1.89-3.68,5.24-7.55,6.88-13,6-20-6-16.26-8.83-12.54s.46,13.47.46,13.47,8.83,16.26-37.63,12.54c0,0-30.66-6.5-27.41-47.85.33-4.14-6.5-14.87,13.94-20.44h0a28.13,28.13,0,0,1,21.5-24.45C167.15,86.89,188.33,85.74,203.74,100.09Z" transform="translate(0 0)"/><ellipse class="cls-2" cx="275" cy="654" rx="258"/></svg>